<?xml version="1.0" encoding="utf-8"?>
<svg width="892" height="243" viewBox="0 0 892 243" fill="none" xmlns="http://www.w3.org/2000/svg">
  <path d="M115.53 186.29H16.05C16.95 198.65 21.7 208.64 30.29 216.25C38.88 223.86 49.73 227.67 62.85 227.67C70.23 227.67 77.02 226.35 83.2 223.71C89.38 221.07 94.73 217.19 99.25 212.07L108.29 222.47C103.01 228.8 96.42 233.63 88.51 236.94C80.6 240.26 71.89 241.91 62.4 241.91C50.19 241.91 39.37 239.31 29.96 234.11C20.54 228.91 13.19 221.72 7.92 212.52C2.64 203.33 0 192.92 0 181.32C0 169.72 2.52 159.31 7.57 150.12C12.62 140.93 19.55 133.77 28.37 128.64C37.19 123.52 47.1 120.95 58.1 120.95C69.1 120.95 78.97 123.51 87.72 128.64C96.46 133.77 103.32 140.89 108.29 150.01C113.26 159.13 115.75 169.57 115.75 181.32L115.53 186.29ZM29.28 145.71C21.52 153.02 17.11 162.55 16.05 174.31H100.38C99.32 162.55 94.92 153.02 87.15 145.71C79.39 138.4 69.7 134.74 58.1 134.74C46.65 134.74 37.04 138.4 29.28 145.71Z" fill="#20383B"/>
  <path d="M319.23 234.11C310.03 228.91 302.8 221.72 297.53 212.52C292.25 203.33 289.62 192.93 289.62 181.32C289.62 169.72 292.26 159.31 297.53 150.12C302.8 140.93 310.04 133.77 319.23 128.64C328.42 123.52 338.75 120.95 350.2 120.95C361.65 120.95 371.98 123.51 381.17 128.64C390.36 133.77 397.56 140.93 402.76 150.12C407.96 159.32 410.56 169.72 410.56 181.32C410.56 192.93 407.96 203.33 402.76 212.52C397.56 221.72 390.36 228.91 381.17 234.11C371.97 239.31 361.65 241.91 350.2 241.91C338.74 241.91 328.42 239.31 319.23 234.11ZM372.92 221.9C379.62 218.06 384.86 212.6 388.63 205.51C392.4 198.43 394.28 190.36 394.28 181.32C394.28 172.28 392.39 164.21 388.63 157.13C384.86 150.05 379.62 144.58 372.92 140.74C366.21 136.9 358.64 134.98 350.2 134.98C341.76 134.98 334.18 136.9 327.48 140.74C320.77 144.58 315.5 150.05 311.65 157.13C307.81 164.21 305.88 172.28 305.88 181.32C305.88 190.36 307.8 198.43 311.65 205.51C315.49 212.6 320.77 218.06 327.48 221.9C334.18 225.74 341.76 227.67 350.2 227.67C358.64 227.66 366.21 225.74 372.92 221.9Z" fill="#20383B"/>
  <path d="M461.43 73.02H477.48V240.77H461.43V73.02Z" fill="#20383B"/>
  <path d="M643.88 186.29H544.4C545.3 198.65 550.05 208.64 558.64 216.25C567.23 223.86 578.08 227.67 591.2 227.67C598.58 227.67 605.37 226.35 611.55 223.71C617.73 221.07 623.08 217.19 627.6 212.07L636.64 222.47C631.36 228.8 624.77 233.63 616.86 236.94C608.95 240.26 600.24 241.91 590.75 241.91C578.54 241.91 567.72 239.31 558.31 234.11C548.89 228.91 541.54 221.72 536.27 212.52C530.99 203.33 528.36 192.93 528.36 181.32C528.36 169.72 530.88 159.31 535.93 150.12C540.98 140.93 547.91 133.77 556.73 128.64C565.55 123.52 575.46 120.95 586.46 120.95C597.46 120.95 607.33 123.51 616.08 128.64C624.82 133.77 631.68 140.89 636.65 150.01C641.62 159.13 644.11 169.57 644.11 181.32L643.88 186.29ZM557.63 145.71C549.87 153.02 545.46 162.55 544.4 174.31H628.73C627.67 162.55 623.27 153.02 615.5 145.71C607.74 138.4 598.05 134.74 586.45 134.74C575 134.74 565.39 138.4 557.63 145.71Z" fill="#20383B"/>
  <path d="M878.44 133.84C886.95 142.43 891.21 155.09 891.21 171.82V240.78H875.16V173.4C875.16 161.04 872.18 151.62 866.23 145.14C860.27 138.66 851.87 135.42 841.02 135.42C828.66 135.42 818.94 139.23 811.86 146.84C804.77 154.45 801.23 164.96 801.23 178.38V240.78H785.18V173.4C785.18 161.04 782.2 151.62 776.25 145.14C770.29 138.66 761.82 135.42 750.82 135.42C738.61 135.42 728.92 139.23 721.77 146.84C714.61 154.45 711.03 164.96 711.03 178.38V240.78H694.98V121.86H710.35V143.57C714.57 136.33 720.45 130.76 727.98 126.84C735.52 122.92 744.18 120.96 753.98 120.96C763.93 120.96 772.55 123.07 779.87 127.29C787.18 131.51 792.64 137.77 796.26 146.05C800.63 138.21 806.92 132.07 815.14 127.63C823.35 123.19 832.74 120.96 843.29 120.96C858.21 120.95 869.93 125.25 878.44 133.84Z" fill="#20383B"/>
  <path d="M159.983 118.614L144.694 125.104L194.375 242.154L209.665 235.665L159.983 118.614Z" fill="#20383B"/>
  <path d="M298.717 0.997132L249.036 118.048L262.567 123.791L312.249 6.74042L298.717 0.997132Z" fill="#FCC83D"/>
</svg>
