<?xml version="1.0" encoding="UTF-8"?>
<svg xmlns="http://www.w3.org/2000/svg" width="149" height="106" viewBox="0 0 149 106" fill="none">
  <g clip-path="url(#clip0_759_49570)">
    <path d="M62.1158 32.3362L53.1792 24.5228C53.1208 24.4724 53.0896 24.3987 53.0896 24.3211V10.3626C53.0896 9.49358 52.7118 8.66336 52.0573 8.0892L43.6427 0.745274C42.5013 -0.251761 40.7833 -0.251761 39.6419 0.745274L31.2313 8.0892C30.5729 8.66336 30.1989 9.4897 30.1989 10.3626V24.3211C30.1989 24.3987 30.1677 24.4724 30.1093 24.5228L21.1727 32.3362C20.5144 32.9103 20.1404 33.7367 20.1404 34.6057V48.4594C20.1404 49.3284 20.5183 50.1587 21.1727 50.7328L29.5834 58.0767C30.1522 58.5733 30.869 58.8255 31.5819 58.8255C32.2948 58.8255 33.0116 58.5772 33.5842 58.0767L39.9029 52.5601L39.7666 52.4398C39.1004 51.8579 38.6018 51.1169 38.3018 50.2983L31.7611 56.009C31.7026 56.0633 31.6325 56.071 31.5858 56.071C31.539 56.071 31.4689 56.0594 31.4104 56.009L22.9998 48.665C22.9414 48.6146 22.9102 48.5409 22.9102 48.4633V34.6096C22.9102 34.532 22.9453 34.4583 22.9998 34.4078L31.4104 27.0639C31.4689 27.0096 31.539 27.0018 31.5858 27.0018C31.6325 27.0018 31.7026 27.0135 31.765 27.0639L40.1756 34.4078C40.2341 34.4583 40.2652 34.532 40.2652 34.6096V48.4633C40.2652 49.3323 40.6431 50.1625 41.2976 50.7367L49.7082 58.0806C50.277 58.5772 50.9938 58.8294 51.7106 58.8294C52.4274 58.8294 53.1403 58.5811 53.709 58.0806L62.1197 50.7367C62.7742 50.1625 63.152 49.3362 63.152 48.4633V34.6096C63.152 33.7406 62.7742 32.9103 62.1197 32.34L62.1158 32.3362ZM60.3822 48.4633C60.3822 48.5409 60.3511 48.6146 60.2926 48.665L51.882 56.009C51.8196 56.0633 51.7534 56.071 51.7067 56.071C51.6599 56.071 51.5898 56.0594 51.5275 56.009L43.1168 48.665C43.0584 48.6146 43.0272 48.5409 43.0272 48.4633V34.6096C43.0272 34.532 43.0623 34.4583 43.1168 34.4078L51.5275 27.0639C51.5898 27.0096 51.656 27.0018 51.7067 27.0018C51.7573 27.0018 51.8235 27.0135 51.882 27.0639L60.2926 34.4078C60.3511 34.4583 60.3822 34.532 60.3822 34.6096V48.4633ZM2.7659 48.4633V34.6096C2.7659 34.532 2.79706 34.4583 2.8555 34.4078L11.2662 27.0639C11.3285 27.0096 11.3947 27.0018 11.4454 27.0018C11.496 27.0018 11.5622 27.0135 11.6207 27.0639L18.1614 32.7746C18.4653 31.9521 18.9717 31.2033 19.6495 30.6098L19.7664 30.5089L13.4477 24.9884C12.8789 24.4918 12.1622 24.2396 11.4454 24.2396C10.7286 24.2396 10.0157 24.4879 9.443 24.9884L1.03234 32.3362C0.37398 32.9103 0 33.7367 0 34.6057V48.4594C0 49.3284 0.377876 50.1587 1.03234 50.7289L8.15745 56.9517C8.46131 56.1176 8.97163 55.365 9.65337 54.7675L9.75465 54.6783L2.85939 48.6534C2.80096 48.603 2.76979 48.5293 2.76979 48.4517L2.7659 48.4633ZM30.2651 60.936V72.6211C30.2651 72.6986 30.234 72.7724 30.1755 72.8228L21.7649 80.1667C21.7025 80.221 21.6363 80.2288 21.5896 80.2288C21.5428 80.2288 21.4727 80.2171 21.4143 80.1667L13.0036 72.8228C12.9452 72.7724 12.914 72.6986 12.914 72.6211V58.7673C12.914 58.6897 12.9491 58.616 13.0036 58.5656L19.8638 52.5756L19.7275 52.4553C19.0574 51.8695 18.5549 51.1363 18.251 50.3216L11.1843 56.4939C10.526 57.0681 10.152 57.8944 10.152 58.7673V72.6211C10.152 73.4901 10.5299 74.3203 11.1843 74.8906L19.595 82.2345C20.1638 82.7311 20.8806 82.9832 21.5974 82.9832C22.3142 82.9832 23.0271 82.7349 23.5958 82.2345L32.0065 74.8906C32.6648 74.3164 33.0388 73.4901 33.0388 72.6211V60.936C32.5908 61.0523 32.1311 61.1183 31.6598 61.1183C31.1884 61.1183 30.7209 61.0562 30.2729 60.936H30.2651Z" fill="#FF0000"></path>
    <path d="M53.5731 80.2322C53.8341 80.2322 54.0445 80.0189 54.0445 79.7628V64.2409C54.0445 63.981 53.8302 63.7715 53.5731 63.7715H50.7215C50.4605 63.7715 50.1411 63.8879 50.0671 64.1711L47.27 74.8087C47.2233 74.9716 47.0324 74.9716 46.9856 74.8087L44.2937 64.1711C44.2236 63.8879 44.0561 63.7715 43.799 63.7715H40.7526C40.4916 63.7715 40.2812 63.9848 40.2812 64.2409V79.7628C40.2812 80.0228 40.4955 80.2322 40.7526 80.2322H42.4979C42.7589 80.2322 42.9692 80.0189 42.9692 79.7628V70.6227C42.9692 70.483 43.1328 70.4365 43.1835 70.5761L45.8325 79.8327C45.9026 80.1159 46.0702 80.2322 46.3273 80.2322H47.9362C48.1972 80.2322 48.3608 80.1159 48.4309 79.8327L51.1267 70.5761C51.1734 70.4365 51.3409 70.483 51.3409 70.6227V79.7628C51.3409 80.0228 51.5552 80.2322 51.8123 80.2322H53.5653H53.5731ZM68.4505 75.2975V64.2448C68.4505 63.9848 68.2363 63.7753 67.9792 63.7753H65.9223C65.6613 63.7753 65.4509 63.9887 65.4509 64.2448V75.4643C65.4509 76.5661 64.6094 77.5127 63.0006 77.5127C61.4891 77.5127 60.5814 76.539 60.5814 75.441V64.2409C60.5814 63.981 60.3671 63.7715 60.11 63.7715H58.0687C57.8077 63.7715 57.5973 63.9848 57.5973 64.2448V75.2975C57.5973 78.1451 59.7906 80.4961 63.0044 80.4961C66.2183 80.4961 68.4544 78.1451 68.4544 75.2975H68.4505ZM88.8091 80.4922C92.0697 80.4922 94.263 78.1412 94.263 75.2936V64.2409C94.263 63.981 94.0487 63.7715 93.7916 63.7715H91.7347C91.4737 63.7715 91.2633 63.9848 91.2633 64.2409V75.4604C91.2633 76.5622 90.4219 77.5088 88.813 77.5088C87.3015 77.5088 86.3938 76.5351 86.3938 75.4372V64.237C86.3938 63.9771 86.1795 63.7676 85.9224 63.7676H83.8811C83.6201 63.7676 83.4098 63.981 83.4098 64.2409V75.2936C83.4098 78.1412 85.603 80.4922 88.813 80.4922H88.8091ZM81.2438 66.2582V64.2409C81.2438 63.981 81.0295 63.7715 80.7724 63.7715H71.0879C70.8269 63.7715 70.6165 63.9848 70.6165 64.2409V66.2582C70.6165 66.5182 70.8308 66.7277 71.0879 66.7277H74.2005C74.3407 66.7277 74.4381 66.8208 74.4381 66.9643V79.7628C74.4381 80.0228 74.6524 80.2322 74.9095 80.2322H76.9313C77.1923 80.2322 77.4027 80.0189 77.4027 79.7628V66.9643C77.4027 66.8246 77.4962 66.7277 77.6403 66.7277H80.7724C81.0334 66.7277 81.2438 66.5143 81.2438 66.2582ZM137.212 63.7715H127.528C127.267 63.7715 127.056 63.9848 127.056 64.2409V66.2582C127.056 66.5182 127.271 66.7277 127.528 66.7277H130.64C130.781 66.7277 130.878 66.8208 130.878 66.9643V79.7628C130.878 80.0228 131.092 80.2322 131.349 80.2322H133.371C133.632 80.2322 133.843 80.0189 133.843 79.7628V66.9643C133.843 66.8246 133.936 66.7277 134.08 66.7277H137.212C137.473 66.7277 137.684 66.5143 137.684 66.2582V64.2409C137.684 63.981 137.469 63.7715 137.212 63.7715ZM107.648 80.2322C108.026 80.2322 108.166 79.9723 108.12 79.7628L104.041 64.1245C103.994 63.9111 103.803 63.7715 103.593 63.7715H100.675C100.461 63.7715 100.274 63.9111 100.227 64.1245L96.09 79.7628C96.0433 79.9723 96.1835 80.2322 96.5614 80.2322H98.6962C98.9105 80.2322 99.0975 80.0926 99.1442 79.8792L99.7987 77.214C99.8454 77.0006 99.9389 76.8609 100.153 76.8609H103.975C104.189 76.8609 104.283 77.0239 104.329 77.214L105.097 79.8792C105.167 80.0926 105.334 80.2322 105.545 80.2322H107.644H107.648ZM103.289 73.9785H100.917C100.776 73.9785 100.679 73.9086 100.73 73.7185C100.73 73.7185 101.93 67.7906 101.945 67.713C101.961 67.6393 101.992 67.6199 102.062 67.6199H102.14C102.21 67.6199 102.233 67.6432 102.257 67.713L103.476 73.7185C103.523 73.9048 103.429 73.9785 103.289 73.9785ZM118.837 77.2761H113.877C113.737 77.2761 113.64 77.1829 113.64 77.0394V64.2409C113.64 63.981 113.426 63.7715 113.168 63.7715H111.143C110.882 63.7715 110.671 63.9848 110.671 64.2409V79.7628C110.671 80.0228 110.886 80.2322 111.143 80.2322H118.837C119.098 80.2322 119.308 80.0189 119.308 79.7628V77.7455C119.308 77.4855 119.094 77.2761 118.837 77.2761ZM124.333 63.7715H122.308C122.047 63.7715 121.836 63.9848 121.836 64.2409V79.7628C121.836 80.0228 122.05 80.2322 122.308 80.2322H124.333C124.594 80.2322 124.805 80.0189 124.805 79.7628V64.2409C124.805 63.981 124.59 63.7715 124.333 63.7715ZM122.409 85.6015H120.383C120.122 85.6015 119.912 85.8149 119.912 86.0709V101.589C119.912 101.849 120.126 102.058 120.383 102.058H122.409C122.67 102.058 122.88 101.845 122.88 101.589V86.0709C122.88 85.811 122.666 85.6015 122.409 85.6015ZM148.525 77.2761H143.009C142.869 77.2761 142.771 77.1829 142.771 77.0394V73.6991C142.771 73.5595 142.865 73.4625 143.009 73.4625H148.334C148.595 73.4625 148.806 73.2491 148.806 72.9931V70.9796C148.806 70.7197 148.591 70.5102 148.334 70.5102H143.009C142.869 70.5102 142.771 70.4171 142.771 70.2735V66.9604C142.771 66.8208 142.865 66.7238 143.009 66.7238H148.525C148.786 66.7238 148.997 66.5104 148.997 66.2544V64.237C148.997 63.9771 148.782 63.7676 148.525 63.7676H140.29C140.029 63.7676 139.818 63.981 139.818 64.237V79.7589C139.818 80.0189 140.033 80.2284 140.29 80.2284H148.525C148.786 80.2284 148.997 80.015 148.997 79.7589V77.7416C148.997 77.4817 148.782 77.2722 148.525 77.2722V77.2761ZM148.525 99.1061H143.009C142.869 99.1061 142.771 99.013 142.771 98.8733V95.5331C142.771 95.3934 142.865 95.3003 143.009 95.3003H148.334C148.595 95.3003 148.806 95.0869 148.806 94.8309V92.8174C148.806 92.5575 148.591 92.348 148.334 92.348H143.009C142.869 92.348 142.771 92.2549 142.771 92.1113V88.7982C142.771 88.6586 142.865 88.5616 143.009 88.5616H148.525C148.786 88.5616 148.997 88.3482 148.997 88.0921V86.0748C148.997 85.8149 148.782 85.6054 148.525 85.6054H140.29C140.029 85.6054 139.818 85.8187 139.818 86.0748V101.593C139.818 101.853 140.033 102.062 140.29 102.062H148.525C148.786 102.062 148.997 101.849 148.997 101.593V99.5755C148.997 99.3156 148.782 99.1061 148.525 99.1061ZM48.6841 85.6015H40.7565C40.4955 85.6015 40.2851 85.8149 40.2851 86.0709V101.593C40.2851 101.853 40.4994 102.062 40.7565 102.062H42.79C43.051 102.062 43.2614 101.849 43.2614 101.593V95.568C43.2614 95.4283 43.3549 95.3313 43.499 95.3313H48.4504C48.7114 95.3313 48.9218 95.118 48.9218 94.8619V92.829C48.9218 92.5691 48.7075 92.3596 48.4504 92.3596H43.499C43.3588 92.3596 43.2614 92.2665 43.2614 92.123V88.806C43.2614 88.6663 43.3549 88.5693 43.499 88.5693H48.6841C48.9451 88.5693 49.1555 88.3598 49.1555 88.0999V86.0709C49.1555 85.811 48.9412 85.6015 48.6841 85.6015ZM59.5958 94.6446C61.2709 93.5157 62.0812 92.2704 62.0812 90.4586C62.0812 87.8361 60.0087 85.6054 57.2935 85.6054H52.2642C52.0032 85.6054 51.7928 85.8149 51.7928 86.0748V101.597C51.7928 101.857 52.0071 102.066 52.2642 102.066H54.2821C54.5431 102.066 54.7535 101.853 54.7535 101.597V95.5602C54.7535 95.4206 54.847 95.3236 54.9911 95.3236H55.9066C56.1676 95.3236 56.2845 95.5098 56.3312 95.63L58.7387 101.597C58.8556 101.88 59.0465 102.066 59.4244 102.066H61.4852C61.9565 102.066 62.1007 101.713 61.9332 101.36L59.4555 95.4244C59.2919 95.0714 59.2685 94.8852 59.5958 94.6485V94.6446ZM57.3675 92.3906H55.0028C54.8626 92.3906 54.7652 92.2975 54.7652 92.154L54.7535 88.7594C54.7535 88.6198 54.847 88.5228 54.9911 88.5228H57.3558C58.318 88.5228 59.1127 89.5082 59.1127 90.4548C59.1127 91.4014 58.3258 92.3868 57.3675 92.3868V92.3906ZM143.282 63.2128H143.422L144.45 63.2206C144.637 63.2206 144.696 63.2322 144.863 63.046C145.007 62.8869 146.92 60.6329 146.92 60.6329C147.154 60.373 147.107 60.0782 146.76 60.0743H146.484L145.432 60.0665C144.93 60.0665 144.68 60.3963 144.594 60.5243C144.594 60.5243 143.095 62.5649 142.935 62.7822C142.775 62.9956 142.904 63.2167 143.282 63.2167V63.2128ZM98.5676 102.85L97.2548 102.838C96.7523 102.838 96.5809 103.098 96.4173 103.296C96.2536 103.494 94.7227 105.503 94.7227 105.503C94.5357 105.787 94.6759 105.988 94.9603 105.988L96.2108 105.996C96.3978 105.996 96.5069 105.973 96.7133 105.732C97.0561 105.337 98.6105 103.579 98.8248 103.335C99.039 103.09 98.9105 102.854 98.5676 102.846V102.85ZM98.2755 88.3404C99.7636 88.3404 100.582 89.5741 100.582 90.544C100.582 90.9552 100.734 91.0367 101.053 91.0367H103.098C103.359 91.0367 103.57 90.8 103.57 90.5673V90.544C103.57 87.8671 101.532 85.3455 98.2755 85.3455C95.0187 85.3455 93.0242 87.712 92.6658 90.5324C92.506 91.8048 92.506 93.8338 92.506 93.8377C92.506 93.8416 92.506 95.8706 92.6658 97.1431C93.0203 99.9635 94.9992 102.33 98.2755 102.33C101.552 102.33 103.57 99.8044 103.57 97.1314V97.1081C103.57 96.8754 103.355 96.6387 103.098 96.6387H101.053C100.734 96.6387 100.582 96.7202 100.582 97.1314C100.582 98.0974 99.7636 99.335 98.2755 99.335C96.7873 99.335 95.8991 98.3767 95.6732 97.0926C95.4823 96.0064 95.4589 95.1878 95.455 93.8416C95.455 92.4954 95.4784 91.6768 95.6732 90.5906C95.8991 89.3103 96.838 88.3482 98.2755 88.3482V88.3404ZM88.8013 85.6015H86.9509C86.6899 85.6015 86.4795 85.8149 86.4795 86.0709V95.8745C86.4795 96.0141 86.3159 96.0607 86.2652 95.921L82.5761 86.0244C82.506 85.811 82.3385 85.6015 81.984 85.6015H79.4518C79.1908 85.6015 78.9804 85.8149 78.9804 86.0709V101.589C78.9804 101.849 79.1947 102.058 79.4518 102.058H81.31C81.571 102.058 81.7814 101.845 81.7814 101.589V92.5807C81.7814 92.4411 81.945 92.3945 81.9956 92.5342L85.6614 101.659C85.7315 101.845 85.8991 102.058 86.3003 102.058H88.8013C89.0623 102.058 89.2727 101.845 89.2727 101.589V86.0709C89.2727 85.811 89.0584 85.6015 88.8013 85.6015ZM131.338 92.0687C130.118 91.7661 129.07 91.1608 129.07 90.1017C129.07 89.1629 129.678 88.2163 131.291 88.2163C132.635 88.2163 133.55 89.0387 133.55 89.9815V90.513C133.55 90.7729 133.765 90.9824 134.022 90.9824H136.063C136.324 90.9824 136.534 90.769 136.534 90.513V89.9815C136.534 87.5762 134.454 85.3455 131.287 85.3455C128.12 85.3455 126.063 87.4443 126.063 90.222C126.063 93.1394 128.217 94.4739 131.17 95.1335C132.943 95.5331 133.804 96.1111 133.804 97.2672C133.804 98.4233 132.841 99.4436 131.287 99.4436C129.912 99.4436 128.833 98.6056 128.833 97.5233V96.6581C128.833 96.3982 128.619 96.1887 128.361 96.1887H126.308C126.047 96.1887 125.837 96.4021 125.837 96.6581V97.5233C125.837 100.103 128.147 102.33 131.291 102.33C134.645 102.33 136.885 100.142 136.885 97.2672C136.885 94.0123 134.649 92.8911 131.338 92.0725V92.0687ZM72.2215 85.9545C72.1748 85.7412 71.9839 85.6015 71.7735 85.6015H68.8557C68.6414 85.6015 68.4544 85.7412 68.4077 85.9545L64.2705 101.593C64.2238 101.806 64.364 102.062 64.7419 102.062H66.8767C67.0871 102.062 67.278 101.923 67.3247 101.709L67.9792 99.044C68.0259 98.8306 68.1194 98.691 68.3337 98.691H72.1553C72.3656 98.691 72.463 98.8539 72.5098 99.044L73.2772 101.709C73.3473 101.923 73.511 102.062 73.7252 102.062H75.825C76.2028 102.062 76.3431 101.802 76.2963 101.593L72.2176 85.9545H72.2215ZM71.4697 95.8085H69.0972C68.957 95.8085 68.8596 95.7387 68.9102 95.5486C68.9102 95.5486 70.1101 89.6207 70.1257 89.5431C70.1412 89.4694 70.1724 89.45 70.2425 89.45H70.3204C70.3906 89.45 70.4139 89.4733 70.4373 89.5431L71.6566 95.5486C71.7034 95.7348 71.6099 95.8085 71.4697 95.8085ZM113.301 85.9545C113.254 85.7412 113.063 85.6015 112.853 85.6015H109.935C109.721 85.6015 109.534 85.7412 109.487 85.9545L105.35 101.593C105.303 101.806 105.443 102.062 105.821 102.062H107.956C108.17 102.062 108.357 101.923 108.404 101.709L109.059 99.044C109.105 98.8306 109.199 98.691 109.413 98.691H113.235C113.449 98.691 113.542 98.8539 113.589 99.044L114.357 101.709C114.427 101.923 114.59 102.062 114.805 102.062H116.904C117.282 102.062 117.422 101.802 117.376 101.593L113.297 85.9545H113.301ZM112.553 95.8085H110.181C110.04 95.8085 109.943 95.7387 109.99 95.5486C109.99 95.5486 111.189 89.6207 111.205 89.5431C111.221 89.4694 111.252 89.45 111.322 89.45H111.4C111.47 89.45 111.493 89.4733 111.517 89.5431L112.736 95.5486C112.783 95.7348 112.689 95.8085 112.549 95.8085H112.553Z" fill="#FF0000"></path>
  </g>
  <defs>
    <clipPath id="clip0_759_49570">
      <rect width="149" height="106" fill="white"></rect>
    </clipPath>
  </defs>
</svg>
