<svg xmlns="http://www.w3.org/2000/svg" width="208.105" height="28.02" viewBox="0 0 208.105 28.02">
  <g id="logo" transform="translate(-0.382 -0.385)">
    <path id="Tracé_2803" data-name="Tracé 2803" d="M18.251,7.56c-.914-1.519-3.443-2.945-6.32-2.945-3.745,0-5.539,1.549-5.539,3.51,0,2.3,2.739,2.946,5.936,3.326,5.563.678,10.739,2.106,10.739,8.423,0,5.887-5.252,8.419-11.19,8.419-5.44,0-9.629-1.663-11.606-6.495L4.456,19.63c1.182,2.908,4.266,4.176,7.5,4.176,3.161,0,6.121-1.093,6.121-3.963,0-2.494-2.623-3.515-6.166-3.89-5.44-.646-10.466-2.08-10.466-8.01C1.449,2.549,6.855.311,11.767.273c4.147,0,8.445,1.169,10.462,5.249Z" transform="translate(0.111 0.112)" fill="#f35443"/>
    <rect id="Rectangle_367" data-name="Rectangle 367" width="4.973" height="26.422" transform="translate(34.712 1.292)" fill="#f35443"/>
    <path id="Tracé_2804" data-name="Tracé 2804" d="M41.912,15.028h7.536c6.434,0,6.4-9.368,0-9.368H41.912Zm7.536,4.556H41.912v7.766H36.888V.927c4.189,0,8.375-.038,12.559-.038,13.018,0,13.071,18.695,0,18.695" transform="translate(15.138 0.365)" fill="#f35443"/>
    <path id="Tracé_2805" data-name="Tracé 2805" d="M71.929,6.462l-4.95,11.259h9.9Zm6.962,15.9H64.961l-2.295,4.984H57.231L69.185.916h5.482l11.95,26.423H81.136Z" transform="translate(23.487 0.376)" fill="#f35443"/>
    <path id="Tracé_2806" data-name="Tracé 2806" d="M90.109,5.57v8.461h7.65c3.2,0,4.568-2.114,4.568-4.228S100.92,5.57,97.759,5.57ZM108.681,27.35h-5.976L94.94,18.514H90.109V27.35H85.081V.89c4.228,0,8.451.038,12.675.038,6.28.038,9.589,4.175,9.589,8.76,0,3.625-1.671,7.289-6.736,8.31l8.072,9.022Z" transform="translate(34.916 0.365)" fill="#f35443"/>
    <path id="Tracé_2807" data-name="Tracé 2807" d="M128.552,27.339H108.613V.917h19.939V5.749H113.6v6.073H128.02v4.653H113.6v5.967h14.954Z" transform="translate(44.573 0.376)" fill="#f35443"/>
    <path id="Tracé_2808" data-name="Tracé 2808" d="M149.279.916h5.516v.231l-9.021,12.834L155.067,27.2v.14h-5.636l-6.812-9.922-6.814,9.922h-5.632v-.151l9.246-13.205L130.439,1.148V.921h5.52l6.66,9.868Z" transform="translate(53.421 0.376)" fill="#f35443"/>
  </g>
</svg>
