<svg id="logo-darkblue" xmlns="http://www.w3.org/2000/svg" width="188.613" height="37.553" viewBox="0 0 188.613 37.553">
  <g id="Groupe_7" data-name="Groupe 7" transform="translate(0 0)">
    <path id="Tracé_2" data-name="Tracé 2" d="M175.979,0a7.008,7.008,0,0,0-6.955,7.059V30.493a7.007,7.007,0,0,0,6.955,7.058h23.643a7.007,7.007,0,0,0,6.955-7.058V7.059A7.008,7.008,0,0,0,199.622,0Z" transform="translate(-99.39 0)" fill="#20639b"/>
    <path id="Tracé_3" data-name="Tracé 3" d="M210.787,40.945V22.792a.528.528,0,0,0-.528-.527h-1.626a.633.633,0,0,0-.51.3l-12.5,14.36V22.792a.531.531,0,0,0-.535-.527H193.47a.531.531,0,0,0-.534.527V40.945a.527.527,0,0,0,.528.527h1.583a.943.943,0,0,0,.55-.311L208.1,26.813V40.945a.527.527,0,0,0,.527.527h1.629a.527.527,0,0,0,.527-.527" transform="translate(-113.45 -13.092)" fill="#fff"/>
    <path id="Tracé_4" data-name="Tracé 4" d="M426.892,19.956V42.088h12.743V39.35h-9.724V32.321h6.415V29.537h-6.415V22.759h9.332v-2.8Z" transform="translate(-251.021 -11.734)" fill="#20639b"/>
    <path id="Tracé_5" data-name="Tracé 5" d="M389.645,26.252a3.178,3.178,0,0,1-1.238,2.462,4.354,4.354,0,0,1-2.923.84h-2.573V22.781h2.573a4.327,4.327,0,0,1,2.923.849,3.281,3.281,0,0,1,1.238,2.622m3.025-.236a5.8,5.8,0,0,0-2.051-4.484,7.772,7.772,0,0,0-5.168-1.539h-5.557V42.111h3.026l-.008-9.762h.953c1.043,0,1.851-.061,2.16-.09l6.028,9.852h3.508l-6.469-10.621a6.094,6.094,0,0,0,3.578-5.473" transform="translate(-223.385 -11.756)" fill="#20639b"/>
    <path id="Tracé_6" data-name="Tracé 6" d="M330.357,19.991h2.617L342.3,42.1H338.9l-2.627-6.521h-9.227L324.414,42.1H321.05ZM328.234,32.8H335.1l-3.433-8.149Z" transform="translate(-188.784 -11.755)" fill="#20639b"/>
    <path id="Tracé_7" data-name="Tracé 7" d="M286.369,39.056a8.39,8.39,0,0,1,0-16.776,8.833,8.833,0,0,1,5.2,1.535V20.6a11.331,11.331,0,1,0,0,20.13V37.411a9.067,9.067,0,0,1-5.2,1.645" transform="translate(-161.728 -11.371)" fill="#20639b"/>
    <path id="Tracé_8" data-name="Tracé 8" d="M103.325,42.109h-3.05V19.991h2.712l14.748,16.644V19.991h3.05V42.109h-2.5L103.325,25.257Z" transform="translate(-58.964 -11.755)" fill="#20639b"/>
    <path id="Tracé_9" data-name="Tracé 9" d="M77.876,19.991h3.13V42.109h-3.13Z" transform="translate(-45.793 -11.755)" fill="#20639b"/>
    <path id="Tracé_10" data-name="Tracé 10" d="M13.6,27.4,7.664,42.109H5.781L0,19.991H3.21L7.147,35.043l4.947-12.264h2.9l5.06,12.264L23.99,19.991h3.217L21.426,42.109H19.535Z" transform="translate(0 -11.755)" fill="#20639b"/>
  </g>
</svg>
