<svg xmlns="http://www.w3.org/2000/svg" width="1200" height="700" viewBox="0 0 1200 700" role="img" aria-labelledby="title desc">
  <title id="title">Illustration placeholder</title>
  <desc id="desc">Placeholder visuel pour section hero</desc>
  <rect width="1200" height="700" fill="#0d141d"/>
  <rect x="36" y="36" width="1128" height="628" rx="24" fill="#111a24" stroke="#45b980" stroke-opacity="0.45"/>
  <rect x="110" y="130" width="480" height="30" rx="8" fill="#2b384a"/>
  <rect x="110" y="180" width="380" height="18" rx="6" fill="#223042"/>
  <rect x="110" y="210" width="420" height="18" rx="6" fill="#223042"/>
  <rect x="110" y="240" width="350" height="18" rx="6" fill="#223042"/>
  <rect x="110" y="300" width="220" height="52" rx="10" fill="#339867"/>
  <rect x="350" y="300" width="260" height="52" rx="10" fill="#1c2736" stroke="#dce3d8" stroke-opacity="0.35"/>
  <rect x="700" y="120" width="390" height="460" rx="16" fill="#0d141d" stroke="#dce3d8" stroke-opacity="0.2"/>
  <circle cx="895" cy="255" r="78" fill="#1c2736"/>
  <rect x="800" y="360" width="190" height="28" rx="8" fill="#263445"/>
  <rect x="760" y="405" width="270" height="20" rx="6" fill="#223042"/>
  <rect x="785" y="438" width="220" height="20" rx="6" fill="#223042"/>
  <text x="110" y="610" fill="#dce3d8" font-family="'Source Sans 3', sans-serif" font-size="28">Komizo Partners Placeholder</text>
</svg>
